<svg xmlns="http://www.w3.org/2000/svg" viewBox="0 0 28 28"><defs><style>.cls-1{fill:#54bdec;}</style></defs><title>Asset 1</title><g id="Layer_2" data-name="Layer 2"><g id="Layer_1-2" data-name="Layer 1"><path class="cls-1" d="M28,7.33a3.44,3.44,0,0,0-3.39-3.5A3.32,3.32,0,0,0,22,5.07h-.19a14.39,14.39,0,0,0-3,.37C17.72,2.13,16,0,14,0S10.24,2.19,9.12,5.56a15,15,0,0,0-2.94-.34c-2.06,0-3.62.58-4.31,1.79-1,1.75,0,4.41,2.46,7.09a14.22,14.22,0,0,0-2,2.94,3.51,3.51,0,0,0,1.07,6.8,3.31,3.31,0,0,0,2.27-.92l.48,0a14.33,14.33,0,0,0,3-.37C10.28,25.87,12,28,14,28s3.76-2.19,4.88-5.56a14.81,14.81,0,0,0,2.94.34c2.06,0,3.62-.58,4.31-1.79,1-1.75,0-4.41-2.46-7.09a13.43,13.43,0,0,0,2.19-3.32h0A3.49,3.49,0,0,0,28,7.33M14,1.75c1,0,2.25,1.5,3.16,4.13a26.34,26.34,0,0,0-3.23,1.24A26.29,26.29,0,0,0,10.81,6C11.72,3.29,13,1.75,14,1.75M18.38,14c0,.84,0,1.64-.1,2.41-.64.46-1.31.91-2,1.33s-1.47.84-2.21,1.21c-.75-.35-1.5-.73-2.24-1.16s-1.44-.87-2.09-1.32c-.06-.79-.1-1.61-.1-2.47s0-1.64.1-2.41c.63-.45,1.29-.9,2-1.34s1.47-.84,2.21-1.2c.75.35,1.5.73,2.24,1.16s1.44.88,2.09,1.32c.06.79.1,1.61.1,2.47m1.73-1.09c.41.34.8.68,1.16,1-.36.36-.75.71-1.16,1.06,0-.32,0-.65,0-1s0-.73,0-1.09M18,18.71c-.09.57-.2,1.12-.32,1.63-.5-.15-1-.32-1.53-.51.34-.19.69-.38,1-.58s.55-.36.83-.54m-6,1.16c-.55.22-1.09.41-1.62.57q-.2-.8-.35-1.7l.93.57c.34.2.69.38,1,.56M7.9,15.09c-.41-.34-.8-.68-1.16-1,.36-.35.74-.71,1.16-1.06,0,.33,0,.65,0,1s0,.73,0,1.09M10,9.29q.14-.85.32-1.63c.5.15,1,.32,1.53.51-.34.19-.69.38-1,.59s-.55.35-.83.53m7.06-.6c-.34-.2-.69-.38-1-.56.55-.21,1.09-.41,1.62-.57q.2.8.35,1.7l-.94-.57M3.39,7.88C3.71,7.31,4.76,7,6.18,7a12.93,12.93,0,0,1,2.46.27,26.74,26.74,0,0,0-.58,3.4,27.11,27.11,0,0,0-2.54,2.18C3.6,10.67,2.88,8.77,3.39,7.88M6.67,21.16a3.54,3.54,0,0,0,.1-.82A3.47,3.47,0,0,0,4.33,17a14.22,14.22,0,0,1,1.22-1.64,26.46,26.46,0,0,0,2.52,2.08,26.42,26.42,0,0,0,.6,3.45,13.06,13.06,0,0,1-2,.28M14,26.25c-1,0-2.25-1.5-3.16-4.12a26.39,26.39,0,0,0,3.23-1.24A26.24,26.24,0,0,0,17.19,22C16.28,24.71,15,26.25,14,26.25m10.61-6.13c-.33.57-1.37.91-2.79.91a13,13,0,0,1-2.46-.27,26.84,26.84,0,0,0,.58-3.41,26.29,26.29,0,0,0,2.53-2.19c1.93,2.16,2.65,4.07,2.14,5m-.79-9.39c-.16.28-.34.56-.54.85s-.54.71-.84,1.07a26.8,26.8,0,0,0-2.51-2.07,26.25,26.25,0,0,0-.6-3.46,13.44,13.44,0,0,1,1.94-.28,3.6,3.6,0,0,0,0,.48,3.47,3.47,0,0,0,2.6,3.4Z"/></g></g></svg>