<?xml version="1.0" encoding="utf-8"?>
<!-- Generator: Adobe Illustrator 20.1.0, SVG Export Plug-In . SVG Version: 6.00 Build 0)  -->
<svg version="1.1" id="Layer_2" xmlns="http://www.w3.org/2000/svg" xmlns:xlink="http://www.w3.org/1999/xlink" x="0px" y="0px"
	 viewBox="0 0 665.7 167.3" style="enable-background:new 0 0 665.7 167.3;" xml:space="preserve">
<style type="text/css">
	.st0{fill:#FFFFFF;}
	.st1{fill:#52BDEC;}
</style>
<title>logo_irecruit</title>
<path class="st0" d="M76.8,1.3h47.1c25.5,0,50,10.1,50,38.9c0,19.5-12.1,32.3-31,36.5l36.2,60.1h-29.1l-31.4-57.4h-17.6v57.4H76.8
	V1.3z M120.6,59.7c13.6,0,29.1-3.3,29.1-19.7c0-14.7-14.5-18.4-27-18.4h-21.8v38.1H120.6z"/>
<path class="st0" d="M277.1,98.2h-69.8c1,13,12.8,22.6,26.2,22.6c11.5,0,19.1-4.6,24.3-11.9l15.3,12.3c-9,12.3-22,18.4-39.4,18.4
	c-28.3,0-49.4-18.2-49.4-48c0-29.7,20.9-49.2,48.6-49.2c25.6,0,44.4,16.6,44.4,49.8C277.3,94.2,277.3,96.1,277.1,98.2z M254.4,81.7
	c0-11.9-6.7-22.2-21.6-22.2c-13.6,0-24.5,9.4-25.5,22.2H254.4L254.4,81.7z"/>
<path class="st0" d="M360.3,70.4c-3.6-5.2-11.5-9-19-9c-16.8,0-25.2,15.1-25.2,29.5s8.6,29.5,26,29.5c7.1,0,14.9-2.9,19.3-8.2
	l14.3,14.5c-7.7,8.2-20.3,12.8-33.9,12.8c-27.2,0-49.8-18-49.8-48.6c0-29.9,22.2-48.6,49.2-48.6c13.4,0,27.4,5.4,34.6,14.4
	L360.3,70.4z"/>
<path class="st0" d="M391,45h22v15.3h0.4c5-10.5,14.7-18,26.8-18c1.9,0,3.7,0.2,5.5,0.6v21c-2.3-0.6-4.7-1-7.1-1
	c-20.7,0-24.7,18-24.7,24.7v49.2h-23L391,45L391,45z"/>
<path class="st0" d="M544.4,136.8h-21.8v-14.7h-0.4c-4,9.2-14.9,17.4-28.5,17.4c-23.9,0-33.9-18.4-33.9-37.1V45h23v50.9
	c0,10.9,2.5,24.5,17.2,24.5c14.5,0,21.4-12.6,21.4-24.9V45h23L544.4,136.8L544.4,136.8z"/>
<path class="st1" d="M577.7,0c8.4,0,14.9,5.9,14.9,13.8s-6.5,13.8-14.9,13.8s-14.6-6.5-14.6-13.8S569.3,0,577.7,0z"/>
<rect x="566.4" y="45" class="st0" width="23" height="91.9"/>
<path class="st0" d="M604.1,63.3V45h16V18.4h22.6V45h23v18.4h-23V106c0,8.2,1.9,14.2,12.1,14.2c3.4,0.1,6.7-0.6,9.8-1.9l0.8,18
	c-4.9,1.7-10.1,2.5-15.3,2.5c-24.3,0-29.9-14.9-29.9-32.5V63.3H604.1z"/>
<path class="st1" d="M27.9,27.6c10.2,0,14.8-4.1,16.7-13.4C47.6-0.4,38.1,1,27.9,1S8.1-0.4,11.1,14.2C13.1,23.5,17.7,27.6,27.9,27.6
	z"/>
<path class="st1" d="M43.1,49.4c0-1.3-3.6-3.4-5.1-3.7c-6.7-0.8-13.4-0.8-20.1,0c-1.6,0.4-5.1,2.5-5.1,3.7S0,137.8,0,140.4
	s20.7,25.5,27.9,27c7.2-1.5,27.9-24.4,27.9-27S43.1,50.7,43.1,49.4z"/>
</svg>
