<svg xmlns="http://www.w3.org/2000/svg" viewBox="0 0 28 28"><defs><style>.cls-1{fill:#fff;}</style></defs><title>Asset 3</title><g id="Layer_2" data-name="Layer 2"><g id="Layer_1-2" data-name="Layer 1"><path class="cls-1" d="M13.31,5.14A3.94,3.94,0,0,0,13.5,4a4,4,0,1,0-8,0,3.93,3.93,0,0,0,.19,1.14A4.72,4.72,0,0,0,3.5,9h12a4.72,4.72,0,0,0-2.19-3.86M9.5,6a2,2,0,1,1,2-2,2,2,0,0,1-2,2"/><path class="cls-1" d="M16.5,9v1H2.5V9a5.26,5.26,0,0,1,.4-2H0V28H19V7H16.1a5.26,5.26,0,0,1,.4,2"/><rect class="cls-1" x="21" y="5" width="7" height="16"/><polygon class="cls-1" points="24.5 27.98 28 22 21 22 24.5 27.98"/><path class="cls-1" d="M24.5,0C22.57,0,21,.73,21,2V4h7V2c0-1.29-1.57-2-3.5-2"/></g></g></svg>