<svg xmlns="http://www.w3.org/2000/svg" viewBox="0 0 28 28"><defs><style>.cls-1{fill:#54bdec;}</style></defs><title>assssetAsset 2</title><g id="Layer_2" data-name="Layer 2"><g id="Layer_1-2" data-name="Layer 1"><path class="cls-1" d="M28,11.78,22.71,0C14.37.92,9.2,8.9.85,9.81L6.13,21.59c8.35-.92,13.52-8.9,21.87-9.81M7,18l-.37-.81a23.65,23.65,0,0,0,6.1-2.81l.37.81A23.68,23.68,0,0,1,7,18M19,3.37,19.88,3l.37.81a3.31,3.31,0,0,1,1.53-.17c.07.37.13.75.19,1.13a3.06,3.06,0,0,0-1.52.18c-.61.25-.68.6-.56.86s.54.34,1.48.32c1.3,0,2,.36,2.4,1.19a1.74,1.74,0,0,1-.94,2.28l.43.94-.91.38-.4-.87a4.63,4.63,0,0,1-1.72.37L20,9.18a4.08,4.08,0,0,0,1.7-.32c.53-.23.81-.57.64-.94s-.57-.46-1.36-.39c-1.14.11-2,0-2.4-.89a1.92,1.92,0,0,1,.79-2.39L19,3.37M4.52,12.52c4.07-1.11,7.44-3.74,11-6l.37.81c-3.56,2.23-6.93,4.86-11,6l-.37-.81m1.05,2.31c4.07-1.11,7.44-3.74,11-6l.37.81c-3.56,2.23-6.93,4.86-11,6l-.37-.81"/><path class="cls-1" d="M17.79,17.78c-3.45,2.27-7,4.62-11.51,5.12l-.95.1-.39-.87L2.11,15.82A16,16,0,0,1,0,16.22L5.29,28C13.92,27,19.37,18.85,28,17.8l-1.94-4.33c-3,.8-5.55,2.51-8.27,4.3"/></g></g></svg>