<svg xmlns="http://www.w3.org/2000/svg" viewBox="0 0 28 28"><defs><style>.cls-1{fill:#fff;}</style></defs><title>Asset 5</title><g id="Layer_2" data-name="Layer 2"><g id="Layer_1-2" data-name="Layer 1"><path class="cls-1" d="M13.91,4.25A5.19,5.19,0,1,0,19.1,9.44a5.19,5.19,0,0,0-5.19-5.19"/><polygon class="cls-1" points="8.74 18.45 8.44 17.93 7.32 16.01 5.4 14.89 4.88 14.6 4.88 14.5 0 24.2 4.94 23.79 7.55 28 12.17 18.81 11.56 18.45 8.74 18.45"/><path class="cls-1" d="M18.67,17.41l1.25-2.16L22.08,14V11.5l1.25-2.17L22.08,7.17V4.67L19.92,3.41,18.67,1.25h-2.5L14,0,11.84,1.25H9.33L8.08,3.41,5.92,4.67v2.5L4.67,9.33,5.92,11.5V14l2.17,1.25,1.25,2.16h2.5L14,18.67l2.17-1.25Zm-4.76-1.76a6.21,6.21,0,1,1,6.21-6.21,6.22,6.22,0,0,1-6.21,6.21"/><polygon class="cls-1" points="23.12 14.5 23.12 14.6 22.6 14.9 20.68 16.01 19.56 17.93 19.27 18.45 16.44 18.45 15.83 18.81 20.45 28 23.06 23.79 28 24.2 23.12 14.5"/></g></g></svg>