<svg xmlns="http://www.w3.org/2000/svg" viewBox="0 0 28 28"><defs><style>.cls-1{fill:#52bdec;}</style></defs><title>Asset 2</title><g id="Layer_2" data-name="Layer 2"><g id="Layer_1-2" data-name="Layer 1"><rect class="cls-1" x="9" width="19" height="4"/><path class="cls-1" d="M2,0A2,2,0,1,0,4,2,2,2,0,0,0,2,0"/><rect class="cls-1" x="9" y="8" width="19" height="4"/><path class="cls-1" d="M2,8a2,2,0,1,0,2,2A2,2,0,0,0,2,8"/><rect class="cls-1" x="9" y="24" width="19" height="4"/><path class="cls-1" d="M2,24a2,2,0,1,0,2,2,2,2,0,0,0-2-2"/><rect class="cls-1" x="9" y="16" width="19" height="4"/><path class="cls-1" d="M2,16a2,2,0,1,0,2,2,2,2,0,0,0-2-2"/></g></g></svg>