<?xml version="1.0" encoding="utf-8"?>
<!-- Generator: Adobe Illustrator 20.1.0, SVG Export Plug-In . SVG Version: 6.00 Build 0)  -->
<svg version="1.1" id="Layer_1" xmlns="http://www.w3.org/2000/svg" xmlns:xlink="http://www.w3.org/1999/xlink" x="0px" y="0px"
	 viewBox="0 0 100 100" style="enable-background:new 0 0 100 100;" xml:space="preserve">
<style type="text/css">
	.st0{fill:#54BDEC;}
</style>
<path class="st0" d="M71.2,72.6c6-5.7,9.8-13.7,9.8-22.6c0-17.3-13.8-31.3-30.9-31.3c-17.1,0-30.9,14-30.9,31.3
	c0,8.9,3.8,16.9,9.7,22.6c1.2-2.7,3.1-5.2,5.4-7.3c-3.8-4-6.2-9.4-6.2-15.3c0-12.3,9.8-22.2,22-22.2s22,10,22,22.2
	c0,6-2.4,11.4-6.2,15.4C68.1,67.4,69.9,69.9,71.2,72.6 M50,64.5c-8.9,0-17.4,6.5-17.5,15.3V99h35v-7V79.8
	C67.5,71.4,58.9,64.5,50,64.5 M50,1C23.3,1,1,22.9,1,50c0,19.9,14,37,28,44.7V84.5C22,77.6,10,64.7,10,50c0-22,18-39.9,39.7-39.9
	C71.4,10.1,89.9,28,89.9,50C89.9,64.7,78,77.5,71,84.5v10.2C85,87,99,69.9,99,50C99,22.9,76.7,1,50,1 M38.8,49.7
	c0,6.3,5,11.3,11.2,11.3c6.2,0,11.2-5.1,11.2-11.3c0-6.3-5-11.3-11.2-11.3C43.8,38.4,38.8,43.5,38.8,49.7"/>
</svg>
